<svg width="5305" height="956" viewBox="0 0 5305 956" fill="none" xmlns="http://www.w3.org/2000/svg">
<path d="M1612.54 8.18262H1701.75L1843.26 647.514H1858.12L1887.86 502.934L1997.58 8.18262H2123.19L2232.39 503.959L2263.15 648.026H2278.02L2419.01 8.18262H2508.22L2332.88 746.977H2212.91L2071.92 113.798H2053.97L1907.34 746.977H1787.37L1612.54 8.18262Z" fill="white"/>
<path d="M2704.58 368.607H2633.32C2633.32 316.996 2649.9 278.886 2683.05 254.276C2716.21 229.667 2767.3 217.362 2836.35 217.362C2906.42 217.362 2958.2 230.18 2991.69 255.814C3025.53 281.449 3042.45 320.927 3042.45 374.247V638.798C3042.45 661.698 3045.87 676.737 3052.71 683.915C3059.54 691.093 3073.21 693.827 3093.72 692.118V754.667C3087.23 757.06 3081.42 758.427 3076.29 758.769C3071.16 759.11 3065.01 759.281 3057.83 759.281C3032.88 759.281 3012.71 752.616 2997.33 739.286C2982.29 725.956 2974.78 708.354 2974.78 686.479C2957.69 709.379 2933.59 727.152 2902.49 739.799C2871.72 752.445 2836.18 758.769 2795.84 758.769C2738.08 758.769 2693.65 745.268 2662.54 718.266C2631.44 690.922 2615.89 652.299 2615.89 602.396C2615.89 544.975 2634.17 504.13 2670.75 479.862C2707.66 455.253 2769.36 442.948 2855.83 442.948H2963.5V373.734C2963.5 340.238 2953.75 316.483 2934.27 302.47C2914.79 288.114 2882.15 280.937 2836.35 280.937C2788.84 280.937 2755 287.772 2734.83 301.444C2714.67 314.774 2704.58 337.162 2704.58 368.607ZM2964.01 590.604V501.396H2855.32C2798.58 501.396 2757.91 509.086 2733.3 524.467C2709.03 539.506 2696.89 564.97 2696.89 600.858C2696.89 631.278 2707.15 654.521 2727.66 670.585C2748.16 686.649 2777.22 694.682 2814.81 694.682C2862.67 694.682 2899.41 685.795 2925.04 668.021C2951.02 650.248 2964.01 624.442 2964.01 590.604Z" fill="white"/>
<path d="M3578.22 718.266V660.331C3560.79 688.358 3538.4 708.354 3511.05 720.316C3483.71 732.279 3446.97 738.261 3400.83 738.261C3334.86 738.261 3287.69 721.684 3259.32 688.529C3230.95 655.375 3216.77 600.175 3216.77 522.929V228.642H3295.72V522.929C3295.72 576.591 3305.46 614.872 3324.95 637.772C3344.77 660.673 3377.75 672.123 3423.9 672.123C3478.24 672.123 3517.04 660.331 3540.28 636.747C3563.52 613.163 3575.14 573.856 3575.14 518.827V228.642H3654.1V715.189C3654.1 801.664 3636.67 863.358 3601.8 900.272C3567.28 937.187 3509.17 955.644 3427.49 955.644C3357.42 955.644 3305.46 943.51 3271.63 919.242C3237.79 895.316 3220.53 858.402 3219.84 808.5H3300.34C3301.36 838.578 3311.45 859.94 3330.59 872.587C3350.07 885.233 3382.03 891.557 3426.46 891.557C3467.48 891.557 3498.92 886.259 3520.8 875.663C3542.67 865.067 3557.71 847.123 3565.91 821.83C3574.12 796.537 3578.22 762.016 3578.22 718.266Z" fill="white"/>
<path d="M3797.14 291.19V228.642H4161.15V278.373L3887.37 683.402H4162.69V746.977H3792.52V692.118L4069.38 291.19H3797.14Z" fill="white"/>
<path d="M4501.07 758.769C4445.36 758.769 4400.41 749.711 4366.23 731.596C4332.05 713.48 4307.1 684.599 4291.38 644.95C4276 605.302 4268.31 553.007 4268.31 488.065C4268.31 397.489 4284.88 329.643 4318.04 284.525C4351.53 239.408 4410.15 216.85 4493.89 216.85C4551.66 216.85 4596.77 227.104 4629.24 247.611C4661.71 267.777 4684.61 298.881 4697.94 340.922C4711.27 382.963 4717.94 436.283 4717.94 500.883H4348.29C4348.29 570.268 4360.08 619.999 4383.66 650.077C4407.59 679.813 4447.41 694.682 4503.12 694.682C4548.58 694.682 4581.22 688.017 4601.04 674.687C4621.21 661.015 4631.98 637.602 4633.34 604.447H4713.84C4713.84 657.084 4696.41 696.049 4661.54 721.342C4627.02 746.293 4573.53 758.769 4501.07 758.769ZM4349.31 442.436H4637.96C4636.59 401.078 4631.12 368.607 4621.55 345.023C4612.32 321.439 4597.46 304.691 4576.95 294.779C4556.44 284.867 4528.75 279.911 4493.89 279.911C4459.03 279.911 4431.17 284.867 4410.32 294.779C4389.81 304.691 4374.78 321.439 4365.21 345.023C4355.98 368.607 4350.68 401.078 4349.31 442.436Z" fill="white"/>
<path d="M4867.13 746.977V228.642H4931.73L4937.89 303.495C4954.98 272.05 4977.53 249.833 5005.56 236.845C5033.59 223.515 5071.87 216.85 5120.41 216.85C5186.71 216.85 5233.88 233.427 5261.91 266.581C5290.28 299.394 5304.46 354.594 5304.46 432.182V746.977H5225.51V432.182C5225.51 378.178 5215.6 339.896 5195.77 317.338C5176.29 294.438 5143.48 282.987 5097.33 282.987C5042.99 282.987 5004.19 294.779 4980.95 318.363C4957.71 341.947 4946.09 381.254 4946.09 436.283V746.977H4867.13Z" fill="white"/>
<path d="M63.5154 55.1026L0 184.467C30.2313 163.302 47.8618 157.865 79.7759 180.981L330.049 698.989C355.529 728.951 387.767 750.887 426.084 747.976C469.252 747.976 498.39 716.508 509.994 704.324C521.597 692.14 577.662 567.997 577.662 567.997C542.91 589.718 515.62 583.957 499.309 561.332L253.662 55.1026C215.585 -13.6473 110.231 -21.076 63.5154 55.1026Z" fill="#BF00FF"/>
<path d="M511.144 55.1026L447.629 184.467C477.86 163.302 495.491 157.865 527.405 180.981L777.678 698.989C803.158 728.951 835.396 750.887 873.713 747.976C916.88 747.976 946.019 716.508 957.623 704.324C969.226 692.14 1025.29 567.997 1025.29 567.997C990.539 589.718 963.249 583.957 946.938 561.332L701.291 55.1026C663.214 -13.6473 557.86 -21.076 511.144 55.1026Z" fill="#BF00FF"/>
<path d="M895.258 184.467L958.773 55.1026C1005.49 -21.076 1110.84 -13.6473 1148.92 55.1026L1191.2 134.123C1213.3 164.415 1145.52 295.329 1111.59 320.361C1104.19 325.823 1095.73 329.381 1086.24 329.381C1050.59 333.18 1036.84 314.797 1004.27 252.591C993.059 222.827 983.284 198.057 975.034 180.981C943.119 157.865 925.489 163.302 895.258 184.467Z" fill="#BF00FF"/>
</svg>
